# xmcd
# Copyright (C) 1995-1998 Ti Kan
#
# Track frame offsets:
#       150
#       14973
#       35976
#       47954
#       61977
#       78062
#       95462
#       116281
#       138264
#       155845
#       167268
#
# Disc length: 2490 seconds
#
# Revision: 0
# Processed by: cddbd v1.5.2PL0 Copyright (c) Steve Scherf et al.
# Submitted via: CD-Transfer v1.0
#
DISCID=8e09b80b
DTITLE=Bayou Side - All I Feel
DYEAR=13
DGENRE=
TTITLE0=All I Feel
TTITLE1=This Road
TTITLE2=Big City
TTITLE3=Stone Cold Blues
TTITLE4=Purple Haze
TTITLE5=Take Me To The Mountain
TTITLE6=The Long Goodbye
TTITLE7=Keep On Keeping On
TTITLE8=Both Feet On The Ground Feat. Ganes
TTITLE9=I Am Gonna Break
TTITLE10=Death Row Blues
EXTD=
EXTT0=
EXTT1=
EXTT2=
EXTT3=
EXTT4=
EXTT5=
EXTT6=
EXTT7=
EXTT8=
EXTT9=
EXTT10=
PLAYORDER=
